<svg xmlns="http://www.w3.org/2000/svg" viewBox="0 0 64 64">
  <rect x="12" y="12" width="40" height="40" rx="4" fill="#dc2626" stroke="#991b1b" stroke-width="2"/>
  <rect x="18" y="18" width="28" height="28" rx="2" fill="#1a1a2e"/>
  <rect x="24" y="24" width="16" height="16" rx="1" fill="#dc2626" opacity="0.15"/>
  <rect x="27" y="27" width="10" height="10" rx="1" fill="#dc2626" opacity="0.3"/>
  <line x1="22" y1="6" x2="22" y2="14" stroke="#dc2626" stroke-width="2" stroke-linecap="round"/>
  <line x1="32" y1="6" x2="32" y2="14" stroke="#dc2626" stroke-width="2" stroke-linecap="round"/>
  <line x1="42" y1="6" x2="42" y2="14" stroke="#dc2626" stroke-width="2" stroke-linecap="round"/>
  <line x1="50" y1="22" x2="58" y2="22" stroke="#dc2626" stroke-width="2" stroke-linecap="round"/>
  <line x1="50" y1="32" x2="58" y2="32" stroke="#dc2626" stroke-width="2" stroke-linecap="round"/>
  <line x1="50" y1="42" x2="58" y2="42" stroke="#dc2626" stroke-width="2" stroke-linecap="round"/>
  <line x1="22" y1="50" x2="22" y2="58" stroke="#dc2626" stroke-width="2" stroke-linecap="round"/>
  <line x1="32" y1="50" x2="32" y2="58" stroke="#dc2626" stroke-width="2" stroke-linecap="round"/>
  <line x1="42" y1="50" x2="42" y2="58" stroke="#dc2626" stroke-width="2" stroke-linecap="round"/>
  <line x1="6" y1="22" x2="14" y2="22" stroke="#dc2626" stroke-width="2" stroke-linecap="round"/>
  <line x1="6" y1="32" x2="14" y2="32" stroke="#dc2626" stroke-width="2" stroke-linecap="round"/>
  <line x1="6" y1="42" x2="14" y2="42" stroke="#dc2626" stroke-width="2" stroke-linecap="round"/>
</svg>
